HIERARCHY
ROOT Hips
{
	OFFSET	0.00	0.00	0.00
	CHANNELS 6 Xposition Yposition Zposition Zrotation Xrotation Yrotation
	JOINT LeftUpLeg
	{
		OFFSET	 0.126116	-0.014019	-0.065224
		CHANNELS 3 Zrotation Xrotation Yrotation
		JOINT LeftLeg
		{
			OFFSET	 0.000000	 0.000000	 0.569914
			CHANNELS 3 Zrotation Xrotation Yrotation
			JOINT LeftFoot
			{
				OFFSET	 0.000000	 0.000000	 0.544423
				CHANNELS 3 Zrotation Xrotation Yrotation
				JOINT LeftToeBase
				{
					OFFSET	 0.000000	 0.000000	 0.207117
					CHANNELS 3 Zrotation Xrotation Yrotation
					End Site
					{
						OFFSET	 0.000000	 0.000000	 0.207117
					}
				}
			}
		}
	}
	JOINT RightUpLeg
	{
		OFFSET	-0.124023	-0.008373	-0.065224
		CHANNELS 3 Zrotation Xrotation Yrotation
		JOINT RightLeg
		{
			OFFSET	 0.000000	 0.000000	 0.570047
			CHANNELS 3 Zrotation Xrotation Yrotation
			JOINT RightFoot
			{
				OFFSET	 0.000000	 0.000000	 0.544354
				CHANNELS 3 Zrotation Xrotation Yrotation
				JOINT RightToeBase
				{
					OFFSET	 0.000000	 0.000000	 0.207540
					CHANNELS 3 Zrotation Xrotation Yrotation
					End Site
					{
						OFFSET	 0.000000	 0.000000	 0.207540
					}
				}
			}
		}
	}
	JOINT Spine
	{
		OFFSET	 0.000184	-0.007763	 0.117403
		CHANNELS 3 Zrotation Xrotation Yrotation
		JOINT Spine1
		{
			OFFSET	 0.000000	 0.000000	 0.137269
			CHANNELS 3 Zrotation Xrotation Yrotation
			JOINT Spine2
			{
				OFFSET	 0.000000	 0.000000	 0.156879
				CHANNELS 3 Zrotation Xrotation Yrotation
				JOINT LeftShoulder
				{
					OFFSET	 0.080501	-0.002496	 0.160144
					CHANNELS 3 Zrotation Xrotation Yrotation
					JOINT LeftArm
					{
						OFFSET	 0.000000	 0.000000	 0.164363
						CHANNELS 3 Zrotation Xrotation Yrotation
						JOINT LeftForeArm
						{
							OFFSET	 0.000000	 0.000000	 0.364576
							CHANNELS 3 Zrotation Xrotation Yrotation
							JOINT LeftHand
							{
								OFFSET	 0.000000	 0.000000	 0.360812
								CHANNELS 3 Zrotation Xrotation Yrotation
								JOINT LeftHandIndex1
								{
									OFFSET	 0.000000	 0.000000	 0.086006
									CHANNELS 3 Zrotation Xrotation Yrotation
									JOINT LeftHandIndex2
									{
										OFFSET	 0.000000	 0.000000	 0.047236
										CHANNELS 3 Zrotation Xrotation Yrotation
										JOINT LeftHandIndex3
										{
											OFFSET	-0.004284	-0.000551	 0.038166
											CHANNELS 3 Zrotation Xrotation Yrotation
											End Site
											{
												OFFSET	-0.004284	-0.000551	 0.038166
											}
										}
									}
								}
							}
						}
					}
				}
				JOINT Neck
				{
					OFFSET	 0.000000	 0.000000	 0.176489
					CHANNELS 3 Zrotation Xrotation Yrotation
					JOINT Head
					{
						OFFSET	 0.000000	-0.001747	 0.077940
						CHANNELS 3 Zrotation Xrotation Yrotation
						End Site
						{
							OFFSET	 0.000000	-0.001747	 0.077940
						}
					}
				}
				JOINT RightShoulder
				{
					OFFSET	-0.080363	 0.000306	 0.159706
					CHANNELS 3 Zrotation Xrotation Yrotation
					JOINT RightArm
					{
						OFFSET	 0.000000	 0.000000	 0.164196
						CHANNELS 3 Zrotation Xrotation Yrotation
						JOINT RightForeArm
						{
							OFFSET	 0.000000	 0.000000	 0.365611
							CHANNELS 3 Zrotation Xrotation Yrotation
							JOINT RightHand
							{
								OFFSET	 0.000000	 0.000000	 0.360648
								CHANNELS 3 Zrotation Xrotation Yrotation
								JOINT RightHandIndex1
								{
									OFFSET	 0.000000	 0.000000	 0.069977
									CHANNELS 3 Zrotation Xrotation Yrotation
									JOINT RightHandIndex2
									{
										OFFSET	 0.000000	 0.000000	 0.052305
										CHANNELS 3 Zrotation Xrotation Yrotation
										JOINT RightHandIndex3
										{
											OFFSET	 0.009002	-0.000782	 0.042196
											CHANNELS 3 Zrotation Xrotation Yrotation
											End Site
											{
												OFFSET	 0.009002	-0.000782	 0.042196
											}
										}
									}
								}
							}
						}
					}
				}
			}
		}
	}
}
MOTION
Frames:    10
Frame Time: 0.03333334
-0.041279	 0.264491	 0.995105	 0.171107	 34.388400	-5.757127	-33.888580	-85.613440	 146.526000	 8.606389	-76.277310	 8.769436	-58.407520	 83.255580	 63.161240	-2.385832	 28.452790	-0.000001	 90.909910	-77.223120	-98.168920	-21.180620	-78.007270	-15.701810	 73.662320	 79.964550	-66.619260	 2.384659	 28.388700	-0.000001	-3.329350	 15.454540	 2.109662	-3.359082	 22.920230	 5.204749	 2.892638	-1.628282	 0.751626	-99.058950	 68.188930	 157.127900	 12.298100	-3.960490	-36.928750	-3.506645	 12.761980	-41.504800	-32.632450	-39.940380	-22.525400	-2.027600	 6.559038	 9.033609	-5.188889	 0.308190	 3.541030	-5.234859	 0.342567	 0.430617	 0.080086	 16.073930	-5.292431	 4.902373	-25.321620	 1.140865	 97.361180	 64.600200	-159.352500	-2.315874	 3.550716	 46.742900	-6.540382	 0.651291	 30.373090	 14.820600	-39.334280	 17.469850	 1.803333	 3.979147	-15.098590	 4.898592	 3.004813	-9.310344	 5.224449	 0.395017	 2.014677
-0.040968	 0.264375	 1.006171	-0.086679	 33.398560	-5.192887	-29.593610	-83.493130	 151.066100	 7.556415	-74.840650	 7.698905	-56.014370	 82.853370	 60.517940	-2.385832	 28.452790	-0.000001	 81.411390	-77.345500	-107.754100	-19.718610	-76.407100	-14.180850	 69.473190	 79.977480	-62.307140	 2.384659	 28.388700	-0.000001	-3.498624	 15.629340	 2.131032	-3.190080	 23.737580	 5.078369	 3.314719	-2.898967	 0.384007	-98.542520	 68.716020	 157.939600	 11.898790	-1.558462	-38.329220	-3.170914	 12.556980	-41.769040	-33.615300	-40.058980	-23.476070	-2.027600	 6.559038	 9.033609	-5.188889	 0.308190	 3.541030	-5.234859	 0.342567	 0.430617	-0.457627	 11.550330	-4.188333	 4.982106	-20.938080	 0.474265	 97.095020	 64.170440	-160.412600	-2.950124	 2.960094	 47.392290	-6.084588	 0.939263	 30.931690	 15.106930	-38.881740	 18.953600	 1.803333	 3.979147	-15.098590	 4.898592	 3.004813	-9.310344	 5.224449	 0.395017	 2.014677
-0.040270	 0.264567	 1.017060	-0.284676	 32.383070	-4.717324	-26.538140	-81.414870	 154.365800	 6.732913	-73.366850	 6.853214	-53.607790	 82.486680	 57.874600	-2.385832	 28.452790	-0.000001	 72.026080	-77.034130	-117.181800	-18.647200	-74.805250	-13.045360	 65.827340	 79.910570	-58.512500	 2.384659	 28.388700	-0.000001	-3.677494	 15.812750	 2.136429	-3.077005	 24.293880	 4.961144	 3.552129	-4.063376	 0.105329	-97.883540	 69.604670	 158.674600	 11.972640	 1.023564	-39.582820	-2.861221	 12.330710	-41.936340	-34.645340	-40.119220	-24.691100	-2.027600	 6.559038	 9.033609	-5.188889	 0.308190	 3.541030	-5.234859	 0.342567	 0.430617	-0.808258	 7.046137	-3.208668	 4.902467	-16.645110	-0.334830	 96.820080	 64.213310	-161.066600	-3.628772	 3.241075	 47.647210	-6.070902	 0.969245	 31.509350	 15.094680	-38.390560	 19.825420	 1.803333	 3.979147	-15.098590	 4.898592	 3.004813	-9.310344	 5.224449	 0.395017	 2.014677
-0.038849	 0.265297	 1.030916	-0.452892	 31.057090	-4.178625	-23.660490	-78.781460	 157.566400	 6.019557	-71.408510	 6.102842	-50.344520	 82.045960	 54.294700	-2.385833	 28.452760	 0.000004	 60.957160	-76.083060	-128.241300	-17.658500	-72.723980	-11.964370	 61.773680	 79.742300	-54.201980	 2.384659	 28.388700	-0.000001	-3.890528	 16.042930	 2.099167	-2.956351	 24.781940	 4.763422	 3.705219	-5.405590	-0.135868	-96.835880	 71.217100	 159.495700	 12.649480	 4.631572	-41.289850	-2.504889	 12.014080	-42.003550	-35.914160	-40.188480	-26.216220	-2.027600	 6.559038	 9.033609	-5.188889	 0.308190	 3.541030	-5.234859	 0.342567	 0.430617	-1.091024	 1.570797	-2.370643	 4.818652	-11.428910	-1.144780	 96.339220	 64.861110	-161.757300	-4.642522	 4.533597	 47.885090	-6.296743	 0.857881	 32.336540	 15.069440	-38.022270	 20.628560	 1.803333	 3.979147	-15.098590	 4.898592	 3.004813	-9.310344	 5.224449	 0.395017	 2.014677
-0.036525	 0.266734	 1.048631	-0.552591	 29.378800	-3.551527	-21.119540	-75.451070	 160.512300	 5.587920	-68.768260	 5.599585	-45.945560	 81.476560	 49.418050	-2.385833	 28.452750	 0.000004	 49.284460	-74.191030	-139.823300	-16.646440	-69.967040	-10.821290	 57.069020	 79.426030	-49.103780	 2.384659	 28.388700	-0.000001	-4.107937	 16.365760	 1.990800	-2.798115	 25.230550	 4.395087	 3.759999	-6.945183	-0.262497	-95.076540	 74.021990	 160.269000	 14.173540	 9.523969	-43.925280	-2.098242	 11.577050	-41.898330	-37.353060	-40.317210	-27.859790	-2.027600	 6.559038	 9.033609	-5.188889	 0.308190	 3.541030	-5.234859	 0.342567	 0.430617	-1.349926	-4.858501	-2.165467	 4.812927	-5.248400	-1.560175	 95.425850	 66.612390	-162.667500	-6.010105	 7.303269	 48.556330	-6.721046	 0.612111	 33.333290	 15.254650	-38.196500	 21.464150	 1.803333	 3.979147	-15.098590	 4.898592	 3.004813	-9.310344	 5.224449	 0.395017	 2.014677
-0.033748	 0.267144	 1.066631	-0.436278	 27.682420	-3.005911	-19.439800	-72.006190	 162.729400	 5.421892	-65.978990	 5.335857	-41.149830	 80.852130	 44.115370	-2.385833	 28.452750	 0.000004	 40.329000	-71.615860	-148.632500	-14.406720	-67.201400	-8.548068	 53.104300	 79.047850	-45.258890	 2.384659	 28.388700	-0.000001	-4.297438	 16.577230	 1.773885	-2.680672	 25.575010	 3.924129	 3.695011	-8.672211	-0.240266	-93.318160	 76.546170	 160.928800	 16.539500	 13.452410	-46.363690	-1.639641	 11.178380	-42.002190	-38.124400	-40.317860	-29.295570	-2.027600	 6.559038	 9.033609	-5.188889	 0.308190	 3.541030	-5.234859	 0.342567	 0.430617	-1.594404	-11.325840	-2.512746	 4.744182	 0.753943	-1.697637	 94.549640	 68.340710	-163.516900	-7.835260	 10.032430	 48.972410	-7.045527	 0.420073	 34.730010	 15.224970	-38.365980	 21.835130	 1.803333	 3.979147	-15.098590	 4.898592	 3.004813	-9.310344	 5.224449	 0.395017	 2.014677
-0.029537	 0.265195	 1.087077	 0.146120	 26.240490	-2.567587	-17.971910	-68.516300	 164.924100	 5.162764	-62.632580	 4.944776	-34.585720	 80.147290	 37.192360	-2.385833	 28.452750	 0.000004	 33.650540	-68.458370	-154.919500	-12.215200	-63.943160	-6.356637	 49.558950	 78.332820	-41.743890	 2.384659	 28.388700	-0.000001	-4.321537	 16.097700	 1.101498	-2.701038	 25.688870	 3.312100	 3.558543	-10.490180	-0.293482	-93.498740	 76.091400	 162.336800	 18.932620	 15.300970	-45.975490	-0.884415	 11.039280	-43.534400	-37.793030	-39.883020	-30.573670	-2.027600	 6.559038	 9.033609	-5.188889	 0.308190	 3.541030	-5.234859	 0.342567	 0.430617	-1.669195	-13.870100	-1.711905	 4.553601	 2.945522	-2.272642	 93.994890	 69.260720	-164.317500	-9.870519	 12.468630	 48.033060	-7.388099	 0.199165	 37.091530	 14.799890	-38.167660	 21.937870	 1.803333	 3.979147	-15.098590	 4.898592	 3.004813	-9.310344	 5.224449	 0.395017	 2.014677
-0.024671	 0.260931	 1.112332	 0.884799	 24.771880	-2.133881	-16.835770	-64.286940	 166.925400	 4.774013	-58.240060	 4.416675	-27.581150	 78.967610	 29.807230	-2.385833	 28.452750	 0.000004	 27.901660	-64.395750	-160.160500	-10.077090	-59.613090	-4.256147	 44.683670	 77.246860	-36.924790	 2.384659	 28.388700	-0.000001	-4.267154	 14.980280	 0.372908	-2.626096	 25.636180	 2.576820	 3.250116	-12.492170	-0.323438	-94.126950	 74.667370	 163.924100	 21.672280	 16.428670	-44.144980	 0.146041	 10.988070	-46.183650	-36.507530	-39.192200	-31.195950	-2.027600	 6.559038	 9.033609	-5.188889	 0.308190	 3.541030	-5.234859	 0.342567	 0.430617	-1.719707	-14.899840	-0.992983	 4.266987	 3.812501	-2.622493	 93.849240	 68.774500	-165.464300	-12.089460	 14.091500	 45.818560	-7.709220	-0.049699	 40.694730	 13.874400	-37.466860	 21.852160	 1.803333	 3.979147	-15.098590	 4.898592	 3.004813	-9.310344	 5.224449	 0.395017	 2.014677
-0.021073	 0.254303	 1.140336	 1.530550	 23.258250	-1.801860	-16.004790	-59.407630	 168.631800	 4.351884	-53.023890	 3.812613	-22.335710	 77.273540	 24.112450	-2.385833	 28.452750	 0.000004	 23.203110	-59.657360	-164.346300	-8.252373	-54.345250	-2.524678	 38.173530	 75.836130	-30.585030	 2.384659	 28.388700	-0.000001	-4.060961	 13.278330	 0.005635	-2.199437	 25.369060	 1.750220	 2.711072	-14.483290	-0.300777	-94.535870	 73.288280	 165.374900	 24.523810	 17.286350	-42.209380	 1.270278	 10.869810	-49.216820	-34.341560	-38.366620	-30.590390	-2.027600	 6.559038	 9.033609	-5.188889	 0.308190	 3.541030	-5.234859	 0.342567	 0.430617	-1.820902	-15.261380	-0.911046	 3.864932	 4.241401	-2.480193	 93.992660	 66.754840	-166.949800	-14.037120	 14.369610	 42.472500	-7.962879	-0.313865	 45.228970	 12.498420	-36.234560	 21.528440	 1.803333	 3.979147	-15.098590	 4.898592	 3.004813	-9.310344	 5.224449	 0.395017	 2.014677
-0.019038	 0.248084	 1.161811	 1.993870	 22.132680	-1.520209	-15.622410	-55.525050	 169.597300	 4.030857	-48.822830	 3.350372	-19.275600	 75.858730	 20.775270	-2.385833	 28.452750	 0.000004	 20.301630	-55.782970	-166.915300	-7.112995	-49.876460	-1.504106	 33.450340	 74.599480	-25.977220	 2.384659	 28.388700	-0.000001	-3.738840	 11.744600	-0.190176	-1.703254	 25.005150	 1.034634	 2.194238	-15.812920	-0.336733	-94.780640	 72.100540	 166.471800	 26.400600	 17.666690	-40.775250	 2.136945	 10.732730	-51.678010	-32.299220	-37.620120	-29.374590	-2.027600	 6.559038	 9.033609	-5.188889	 0.308190	 3.541030	-5.234859	 0.342567	 0.430617	-1.848867	-15.136100	-0.718731	 3.434598	 4.292277	-2.473931	 93.956820	 65.244750	-168.136600	-15.265060	 14.383390	 39.924880	-8.145126	-0.562531	 48.735000	 11.336800	-35.183940	 21.029060	 1.803333	 3.979147	-15.098590	 4.898592	 3.004813	-9.310344	 5.224449	 0.395017	 2.014677
